<svg version="1.1" preserveAspectRatio="none" xmlns="http://www.w3.org/2000/svg" width="500" height="500" viewBox="0 0 500 500"><rect width="100%" height="100%" fill="#FFE75F" fill-opacity="1"/><svg viewBox="533.6344 390.1714 239.6624 120" width="333" height="166.73453991948676" x="83.5px" y="166.6327px" xmlns="http://www.w3.org/2000/svg" xmlns:xlink="http://www.w3.org/1999/xlink" preserveAspectRatio="none"><defs></defs><style>.companyName {fill:#FF4B27;fill-opacity:1;}.icon3-str {stroke:#222222;stroke-opacity:1;}</style><g opacity="1" transform="rotate(0 533.6344 390.1714)">
<svg width="239.6624" height="120" x="533.6344" y="390.1714" version="1.1" preserveAspectRatio="none" viewBox="0.625 -34.043 69.23830000000001 34.668">
  <g transform="matrix(1 0 0 1 0 0)" class="companyName"><path id="id-D6z1nYkh8" d="M6.25-33.75L8.13 0L5.63 0L5.31-8.13L3.46-8.13L3.13 0L0.63 0L2.50-33.75L6.25-33.75ZM5.31-10L5-17.50L4.38-32.50L3.75-17.50L3.46-10L5.31-10Z M9.24-33.75L16.74-33.75L16.74-31.88L14.24-31.88L14.24 0L11.74 0L11.74-31.88L9.24-31.88L9.24-33.75Z M18.61-33.75L21.11-33.75L21.11-1.88L23.61-1.88L23.61 0L18.61 0L18.61-33.75Z M31.11-33.75L32.99 0L30.49 0L30.18-8.13L28.32-8.13L27.99 0L25.49 0L27.36-33.75L31.11-33.75ZM30.18-10L29.86-17.50L29.24-32.50L28.61-17.50L28.32-10L30.18-10Z M39.24-3.13L39.24-8.22Q39.24-10.29 39.02-11.78Q38.81-13.26 38.46-14.37Q38.11-15.47 37.66-16.29Q37.21-17.11 36.74-17.83Q36.27-18.55 35.82-19.28Q35.37-20 35.02-20.92Q34.67-21.84 34.45-23.04Q34.24-24.24 34.24-25.92L34.24-25.92L34.24-30.63Q34.24-31.09 34.38-31.69Q34.53-32.29 34.94-32.80Q35.35-33.32 36.08-33.68Q36.82-34.04 37.99-34.04L37.99-34.04Q39.16-34.04 39.89-33.68Q40.63-33.32 41.04-32.80Q41.45-32.29 41.59-31.69Q41.74-31.09 41.74-30.63L41.74-30.63L41.74-21.88L39.24-21.88L39.24-30.63Q39.24-31.09 39.13-31.40Q39.02-31.70 38.85-31.87Q38.67-32.03 38.45-32.10Q38.22-32.17 37.99-32.17L37.99-32.17Q37.75-32.17 37.53-32.10Q37.30-32.03 37.13-31.87Q36.95-31.70 36.85-31.40Q36.74-31.09 36.74-30.63L36.74-30.63L36.74-26.82Q36.74-24.61 37.11-23.13Q37.48-21.64 38.04-20.54Q38.59-19.43 39.24-18.54Q39.88-17.64 40.44-16.59Q41.00-15.55 41.37-14.17Q41.74-12.79 41.74-10.74L41.74-10.74L41.74-3.13Q41.74-2.89 41.68-2.28Q41.62-1.66 41.27-1.02Q40.92-0.37 40.16 0.13Q39.39 0.63 37.99 0.63L37.99 0.63Q36.58 0.63 35.82 0.13Q35.06-0.37 34.71-1.02Q34.36-1.66 34.30-2.28Q34.24-2.89 34.24-3.13L34.24-3.13L34.24-14.38L36.74-14.38L36.74-3.13Q36.74-2.89 36.76-2.57Q36.78-2.25 36.89-1.95Q37.01-1.66 37.27-1.46Q37.52-1.25 37.99-1.25L37.99-1.25Q38.46-1.25 38.71-1.46Q38.96-1.66 39.08-1.95Q39.20-2.25 39.22-2.57Q39.24-2.89 39.24-3.13L39.24-3.13Z M48.61-3.13L48.61-30.63Q48.61-31.09 48.49-31.35Q48.36-31.60 48.07-31.72Q47.77-31.84 47.29-31.86Q46.82-31.88 46.11-31.88L46.11-31.88L46.11-1.88Q46.82-1.88 47.29-1.89Q47.77-1.91 48.07-2.03Q48.36-2.15 48.49-2.40Q48.61-2.66 48.61-3.13L48.61-3.13ZM51.11-30.63L51.11-3.13Q51.11-1.95 50.68-1.32Q50.25-0.68 49.55-0.39Q48.85-0.10 47.95-0.05Q47.05 0 46.11 0L46.11 0L43.61 0L43.61-33.75L46.11-33.75Q47.05-33.75 47.95-33.70Q48.85-33.65 49.55-33.36Q50.25-33.07 50.68-32.43Q51.11-31.80 51.11-30.63L51.11-30.63Z M58.61-33.75L60.49 0L57.99 0L57.68-8.13L55.82-8.13L55.49 0L52.99 0L54.86-33.75L58.61-33.75ZM57.68-10L57.36-17.50L56.74-32.50L56.11-17.50L55.82-10L57.68-10Z M69.86-30.63L69.86-3.13Q69.86-2.89 69.80-2.28Q69.75-1.66 69.39-1.02Q69.04-0.37 68.28 0.13Q67.52 0.63 66.11 0.63L66.11 0.63Q64.71 0.63 63.95 0.13Q63.18-0.37 62.83-1.02Q62.48-1.66 62.42-2.28Q62.36-2.89 62.36-3.13L62.36-3.13L62.36-30.63Q62.36-30.78 62.38-31.09Q62.40-31.41 62.50-31.79Q62.60-32.17 62.83-32.57Q63.07-32.97 63.48-33.30Q63.89-33.63 64.53-33.84Q65.18-34.04 66.11-34.04L66.11-34.04Q67.05-34.04 67.70-33.84Q68.34-33.63 68.75-33.30Q69.16-32.97 69.39-32.57Q69.63-32.17 69.73-31.79Q69.82-31.41 69.84-31.09Q69.86-30.78 69.86-30.63L69.86-30.63ZM64.86-30.63L64.86-3.13Q64.86-2.89 64.88-2.57Q64.90-2.25 65.02-1.95Q65.14-1.66 65.39-1.46Q65.64-1.25 66.11-1.25L66.11-1.25Q66.58-1.25 66.84-1.46Q67.09-1.66 67.21-1.95Q67.32-2.25 67.34-2.57Q67.36-2.89 67.36-3.13L67.36-3.13L67.36-30.63Q67.36-30.86 67.34-31.13Q67.32-31.41 67.21-31.63Q67.09-31.86 66.84-32.01Q66.58-32.17 66.11-32.17L66.11-32.17Q65.64-32.17 65.39-32.01Q65.14-31.86 65.02-31.63Q64.90-31.41 64.88-31.13Q64.86-30.86 64.86-30.63L64.86-30.63Z"/></g>
</svg>
</g></svg></svg>